<svg width="32" height="33" viewBox="0 0 32 33" fill="none" xmlns="http://www.w3.org/2000/svg">
<path fill-rule="evenodd" clip-rule="evenodd" d="M13.2006 0.763106C13.5332 1.09583 13.6603 1.58172 13.5332 2.03434C12.8778 4.36796 12.8564 6.8337 13.471 9.17834C14.0856 11.523 15.3141 13.662 17.0305 15.3758C18.7468 17.0895 20.889 18.3163 23.2372 18.93C25.5853 19.5437 28.0547 19.5222 30.3918 18.8678L30.7439 20.1214L32 20.4705C31.2364 23.2098 29.7674 25.7014 27.7393 27.6974C25.7112 29.6933 23.1948 31.1239 20.4406 31.8465C17.6865 32.5691 14.7909 32.5587 12.0421 31.8161C9.29326 31.0736 6.78727 29.6248 4.7737 27.6143C2.76013 25.6037 1.30926 23.1015 0.565594 20.3568C-0.178068 17.6121 -0.188563 14.7207 0.535154 11.9707C1.25887 9.22067 2.69154 6.70799 4.69046 4.6829C6.68939 2.65781 9.18479 1.191 11.9281 0.428568C12.3817 0.302519 12.868 0.430386 13.2006 0.763106ZM28.7208 21.8531C26.673 22.1089 24.5876 21.9745 22.5768 21.449C19.7809 20.7182 17.2301 19.2576 15.1865 17.217C13.1429 15.1764 11.68 12.6294 10.9482 9.83768C10.4219 7.82993 10.2873 5.74761 10.5435 3.70286C9.05916 4.3895 7.70448 5.33882 6.54774 6.51071C4.86864 8.21178 3.6652 10.3224 3.05728 12.6325C2.44936 14.9425 2.45817 17.3712 3.08285 19.6767C3.70752 21.9823 4.92626 24.0842 6.61766 25.7731C8.30906 27.4619 10.4141 28.6789 12.7231 29.3026C15.0321 29.9263 17.4644 29.9352 19.7779 29.3281C22.0914 28.7211 24.2052 27.5195 25.9088 25.8429C27.0824 24.6879 28.0332 23.3352 28.7208 21.8531Z" fill="#C4C4CC"/>
</svg>
