<svg width="32" height="33" viewBox="0 0 32 33" fill="none" xmlns="http://www.w3.org/2000/svg">
<path fill-rule="evenodd" clip-rule="evenodd" d="M16 9.44753C12.1708 9.44753 9.06667 12.5517 9.06667 16.3809C9.06667 20.21 12.1708 23.3142 16 23.3142C19.8292 23.3142 22.9333 20.21 22.9333 16.3809C22.9333 12.5517 19.8292 9.44753 16 9.44753ZM6.93333 16.3809C6.93333 11.3735 10.9926 7.31419 16 7.31419C21.0074 7.31419 25.0667 11.3735 25.0667 16.3809C25.0667 21.3882 21.0074 25.4475 16 25.4475C10.9926 25.4475 6.93333 21.3882 6.93333 16.3809Z" fill="white"/>
<path fill-rule="evenodd" clip-rule="evenodd" d="M16 0.380859C16.5891 0.380859 17.0667 0.858422 17.0667 1.44753V4.11419C17.0667 4.7033 16.5891 5.18086 16 5.18086C15.4109 5.18086 14.9333 4.7033 14.9333 4.11419V1.44753C14.9333 0.858422 15.4109 0.380859 16 0.380859Z" fill="white"/>
<path fill-rule="evenodd" clip-rule="evenodd" d="M4.68586 5.06672C5.10242 4.65016 5.77779 4.65016 6.19435 5.06672L8.07435 6.94672C8.49091 7.36328 8.49091 8.03865 8.07435 8.45521C7.65779 8.87177 6.98242 8.87177 6.56586 8.45521L4.68586 6.57521C4.2693 6.15865 4.2693 5.48328 4.68586 5.06672Z" fill="white"/>
<path fill-rule="evenodd" clip-rule="evenodd" d="M0 16.3809C0 15.7918 0.477563 15.3142 1.06667 15.3142H3.73333C4.32244 15.3142 4.8 15.7918 4.8 16.3809C4.8 16.97 4.32244 17.4475 3.73333 17.4475H1.06667C0.477563 17.4475 0 16.97 0 16.3809Z" fill="white"/>
<path fill-rule="evenodd" clip-rule="evenodd" d="M8.07435 24.3068C8.49091 24.7234 8.49091 25.3988 8.07435 25.8153L6.19435 27.6953C5.77779 28.1119 5.10242 28.1119 4.68586 27.6953C4.2693 27.2788 4.2693 26.6034 4.68586 26.1868L6.56586 24.3068C6.98242 23.8903 7.65779 23.8903 8.07435 24.3068Z" fill="white"/>
<path fill-rule="evenodd" clip-rule="evenodd" d="M16 27.5809C16.5891 27.5809 17.0667 28.0584 17.0667 28.6475V31.3142C17.0667 31.9033 16.5891 32.3809 16 32.3809C15.4109 32.3809 14.9333 31.9033 14.9333 31.3142V28.6475C14.9333 28.0584 15.4109 27.5809 16 27.5809Z" fill="white"/>
<path fill-rule="evenodd" clip-rule="evenodd" d="M23.9257 24.3068C24.3423 23.8903 25.0176 23.8903 25.4342 24.3068L27.3142 26.1868C27.7308 26.6034 27.7308 27.2788 27.3142 27.6953C26.8976 28.1119 26.2223 28.1119 25.8057 27.6953L23.9257 25.8153C23.5091 25.3988 23.5091 24.7234 23.9257 24.3068Z" fill="white"/>
<path fill-rule="evenodd" clip-rule="evenodd" d="M27.2 16.3809C27.2 15.7918 27.6776 15.3142 28.2667 15.3142H30.9333C31.5224 15.3142 32 15.7918 32 16.3809C32 16.97 31.5224 17.4475 30.9333 17.4475H28.2667C27.6776 17.4475 27.2 16.97 27.2 16.3809Z" fill="white"/>
<path fill-rule="evenodd" clip-rule="evenodd" d="M27.3142 5.06672C27.7308 5.48328 27.7308 6.15865 27.3142 6.57521L25.4342 8.45521C25.0176 8.87177 24.3423 8.87177 23.9257 8.45521C23.5091 8.03865 23.5091 7.36328 23.9257 6.94672L25.8057 5.06672C26.2223 4.65016 26.8976 4.65016 27.3142 5.06672Z" fill="white"/>
</svg>
