<svg width="25" height="33" viewBox="0 0 25 33" fill="none" xmlns="http://www.w3.org/2000/svg">
<path fill-rule="evenodd" clip-rule="evenodd" d="M15.3846 4.79479C14.9506 4.79479 14.5344 4.96917 14.2275 5.27958C13.9206 5.58998 13.7482 6.01098 13.7482 6.44996C13.7482 7.05938 13.2598 7.55341 12.6573 7.55341C12.0548 7.55341 11.5664 7.05938 11.5664 6.44996C11.5664 5.42568 11.9687 4.44334 12.6847 3.71906C13.4008 2.99479 14.3719 2.58789 15.3846 2.58789C16.3972 2.58789 17.3684 2.99479 18.0845 3.71906C18.8005 4.44334 19.2028 5.42568 19.2028 6.44996V14.7258C19.2028 15.3352 18.7144 15.8293 18.1119 15.8293C17.5094 15.8293 17.021 15.3352 17.021 14.7258V6.44996C17.021 6.01098 16.8485 5.58998 16.5417 5.27958C16.2348 4.96917 15.8186 4.79479 15.3846 4.79479Z" fill="white"/>
<path fill-rule="evenodd" clip-rule="evenodd" d="M9.92756 2.58776C9.49357 2.58776 9.07735 2.76214 8.77047 3.07254C8.4636 3.38295 8.29119 3.80395 8.29119 4.24293V8.65672C8.29119 9.26614 7.80278 9.76017 7.20028 9.76017C6.59779 9.76017 6.10938 9.26614 6.10938 8.65672V4.24293C6.10938 3.21864 6.51165 2.23631 7.22769 1.51203C7.94374 0.787755 8.91491 0.380859 9.92756 0.380859C10.9402 0.380859 11.9114 0.787755 12.6274 1.51203C13.3435 2.23631 13.7457 3.21864 13.7457 4.24293V13.6222C13.7457 14.2317 13.2573 14.7257 12.6548 14.7257C12.0523 14.7257 11.5639 14.2317 11.5639 13.6222V4.24293C11.5639 3.80395 11.3915 3.38295 11.0846 3.07254C10.7778 2.76214 10.3615 2.58776 9.92756 2.58776Z" fill="white"/>
<path fill-rule="evenodd" clip-rule="evenodd" d="M4.47443 7.00182C4.04044 7.00182 3.62423 7.1762 3.31735 7.48661C3.01047 7.79701 2.83807 8.21801 2.83807 8.65699V20.2432C2.83807 22.8771 3.87248 25.4031 5.71375 27.2655C7.55501 29.1279 10.0523 30.1742 12.6562 30.1742C15.2602 30.1742 17.7575 29.1279 19.5988 27.2655C21.44 25.4031 22.4744 22.8771 22.4744 20.2432V14.726C22.4744 14.287 22.302 13.866 21.9952 13.5556C21.6883 13.2452 21.2721 13.0708 20.8381 13.0708C20.4041 13.0708 19.9879 13.2452 19.681 13.5556C19.3741 13.866 19.2017 14.287 19.2017 14.726V17.4846C19.2017 18.094 18.7133 18.588 18.1108 18.588C16.9535 18.588 15.8436 19.053 15.0252 19.8808C14.2069 20.7085 13.7472 21.8312 13.7472 23.0018C13.7472 23.6112 13.2587 24.1053 12.6562 24.1053C12.0538 24.1053 11.5653 23.6112 11.5653 23.0018C11.5653 21.2459 12.2549 19.5619 13.4825 18.3203C14.4498 17.3419 15.6886 16.7013 17.0199 16.4737V14.726C17.0199 13.7017 17.4222 12.7193 18.1382 11.9951C18.8543 11.2708 19.8254 10.8639 20.8381 10.8639C21.8507 10.8639 22.8219 11.2708 23.5379 11.9951C24.254 12.7193 24.6562 13.7017 24.6562 14.726V20.2432C24.6562 23.4624 23.392 26.5497 21.1415 28.826C18.8911 31.1023 15.8388 32.3811 12.6562 32.3811C9.47365 32.3811 6.42141 31.1023 4.17097 28.826C1.92053 26.5497 0.65625 23.4624 0.65625 20.2432V8.65699C0.65625 7.63271 1.05852 6.65037 1.77457 5.9261C2.49062 5.20182 3.46179 4.79492 4.47443 4.79492C5.48708 4.79492 6.45825 5.20182 7.17429 5.9261C7.89034 6.65037 8.29261 7.63271 8.29261 8.65699V14.726C8.29261 15.3354 7.8042 15.8294 7.2017 15.8294C6.59921 15.8294 6.1108 15.3354 6.1108 14.726V8.65699C6.1108 8.21801 5.93839 7.79701 5.63152 7.48661C5.32464 7.1762 4.90842 7.00182 4.47443 7.00182Z" fill="white"/>
</svg>
